# 3ds Max Wavefront OBJ Exporter v0.99 - (c)2007 guruware
# File Created: 16.04.2022 18:20:08

mtllib recuerdos.mtl

#
# object Cube
#

v  1.7585 0.0557 -1.0822
v  1.7585 0.0557 -1.5672
v  1.7585 -0.9984 -1.5672
v  1.7585 -0.9984 -1.0822
v  2.0581 -0.9984 -1.5672
v  2.0581 0.0557 -1.5672
v  2.0581 0.0557 -1.0822
v  2.0581 -0.9984 -1.0822
v  -1.7769 -0.9984 -1.5672
v  -1.7769 0.0557 -1.5672
v  -1.7769 0.0557 -1.0822
v  -1.7769 -0.9984 -1.0822
v  -2.0766 -0.9984 -1.0822
v  -2.0766 0.0557 -1.0822
v  -2.0766 -0.9984 -1.5672
v  -2.0766 0.0557 -1.5672
v  -2.0855 1.0000 -2.6238
v  -1.9289 1.0000 -2.4456
v  -1.9289 1.0000 -2.2377
v  -2.0855 1.0000 -2.3921
v  1.9289 1.0000 0.6603
v  1.9289 0.7488 0.6603
v  1.9289 0.7488 0.4524
v  1.9289 1.0000 0.4524
v  -1.9289 1.0000 0.6603
v  -1.9289 0.7488 0.6603
v  -1.7375 0.7488 0.6603
v  -1.7375 1.0000 0.6603
v  -1.9289 0.7488 -2.4456
v  -1.9289 0.7488 -2.2377
v  -1.9289 -1.0015 -2.4457
v  -1.7375 0.7488 -2.4456
v  -1.7375 -1.0015 -2.4457
v  1.9289 0.7488 -2.4456
v  1.9289 -1.0015 -2.4456
v  1.7375 -1.0015 -2.4457
v  1.7375 0.7488 -2.4456
v  1.7375 0.7488 -2.2967
v  -1.7375 0.7488 -2.2967
v  1.7375 1.0000 0.6603
v  1.7375 0.7488 0.6603
v  1.9289 1.0000 -2.4456
v  1.7375 1.0000 -2.4456
v  1.8786 1.0000 -2.6238
v  2.0855 1.0000 -2.6238
v  -1.7375 1.0000 -2.4456
v  -1.8786 1.0000 -2.6238
v  -1.7375 0.7488 0.5093
v  1.7375 0.7488 0.5093
v  1.7375 -1.0015 0.6603
v  1.9289 -1.0015 0.6603
v  -1.9289 -1.0015 -2.2377
v  -1.9289 -1.0015 0.6603
v  -1.7375 -1.0015 0.6603
v  1.9289 -1.0015 0.4524
v  1.9289 -1.0015 -2.2377
v  1.9289 0.7488 -2.2377
v  -1.8060 -1.0015 0.4524
v  -1.9289 -1.0015 0.4524
v  -1.9289 0.7488 0.4524
v  -1.8060 0.7488 0.4524
v  -1.8060 -1.0015 -2.2377
v  -1.8060 0.7488 -2.2377
v  1.8060 0.7488 0.4524
v  1.8060 0.7488 -2.2377
v  1.8060 -1.0015 -2.2377
v  1.8060 -1.0015 0.4524
v  2.0855 1.0000 0.8385
v  1.8786 1.0000 0.8385
v  -1.8786 1.0000 0.8385
v  2.0855 1.0000 -2.3921
v  1.9289 1.0000 -2.2377
v  2.0855 1.0000 0.6067
v  -1.9289 1.0000 0.4524
v  -2.0855 1.0000 0.8385
v  -2.0855 1.0000 0.6067
v  -1.8049 -1.0015 0.4524
v  -1.8049 -1.0015 -2.2377
v  -1.6526 0.5105 0.5093
v  -0.5795 0.5105 0.5093
v  0.5790 0.6296 0.5093
v  -1.7375 -1.0015 0.5093
v  1.7375 -1.0015 0.5093
v  2.0855 1.0964 0.6067
v  2.0855 1.0964 0.8385
v  -2.0855 1.0964 -2.6238
v  -1.8786 1.0964 -2.6238
v  -1.8786 1.0964 0.8385
v  -2.0855 1.0964 0.8385
v  -2.0855 1.0964 -2.3921
v  1.8786 1.0964 -2.6238
v  2.0855 1.0964 -2.6238
v  1.8786 1.0964 0.8385
v  2.0855 1.0964 -2.3921
v  -2.0855 1.0964 0.6067
v  -0.4431 0.5105 0.5093
v  -0.4431 0.5105 0.4189
v  0.3045 0.5105 0.4189
v  0.3045 0.5105 0.5093
v  -1.6526 -0.4952 0.5093
v  -0.5795 -0.4952 0.5093
v  -0.4431 -0.4952 0.5093
v  1.3351 0.1646 0.5681
v  1.3351 0.1646 0.4498
v  0.7322 0.1646 0.4498
v  0.7322 0.1646 0.5681
v  0.3045 -0.4952 0.4189
v  -0.4431 -0.4952 0.4189
v  0.3045 -0.4952 0.5093
v  0.7322 -1.0015 0.4498
v  0.7322 -1.0015 0.5681
v  1.3351 -1.0015 0.5681
v  1.3351 -1.0015 0.4498
v  0.6760 0.2189 0.5681
v  1.3913 0.2189 0.5681
v  0.6760 -1.0015 0.5681
v  1.3913 -1.0015 0.5681
v  1.3913 0.2189 0.5093
v  0.6760 0.2189 0.5093
v  0.6760 -1.0015 0.5093
v  1.3913 -1.0015 0.5093
v  -0.5795 -0.5211 0.5860
v  -0.5795 -0.5211 0.5093
v  -0.5795 -0.4952 0.5860
v  -0.4431 -0.5211 0.5093
v  -1.6526 -0.5211 0.5093
v  -1.6526 -0.5211 0.5860
v  -1.6526 -0.4952 0.5860
v  0.3045 -0.5211 0.5093
v  -0.4431 -1.0015 0.5093
v  0.3045 -1.0015 0.5093
v  -0.5795 -1.0015 0.5093
v  -1.6526 -1.0015 0.5093
v  -1.6526 -0.4952 0.4189
v  -0.5795 -0.4952 0.4189
v  -0.5795 0.5105 0.4189
v  -1.6526 0.5105 0.4189
v  0.3045 -0.5211 0.5860
v  0.3045 -0.4952 0.5860
v  -0.4431 -0.4952 0.5860
v  -0.4431 -0.5211 0.5860
v  1.7375 -1.0015 -2.2967
v  -1.7375 -1.0015 -2.2967
v  -1.8049 0.7488 0.4524
v  -1.8049 0.7488 -2.2377
# 145 vertices

vn -1.0000 0.0000 -0.0000
vn 0.0000 0.0000 -1.0000
vn 1.0000 0.0000 -0.0000
vn 0.0000 0.0000 1.0000
vn 0.0000 -1.0000 -0.0000
vn 0.0000 1.0000 -0.0000
vn 1.0000 -0.0000 0.0000
vn 0.0000 -0.0000 -1.0000
vn -0.0000 0.0000 1.0000
vn 0.0000 -0.0000 1.0000
vn -1.0000 -0.0000 -0.0000
vn 1.0000 -0.0000 -0.0000
vn -0.0000 -0.0000 1.0000
vn -0.0000 -1.0000 -0.0000
vn 0.0000 -1.0000 0.0000
vn -0.0000 0.0000 -1.0000
vn 1.0000 0.0000 0.0000
# 17 vertex normals

vt 0.0000 0.0000 0.0000
vt 0.8729 0.0297 0.0000
vt 0.7854 0.0297 0.0000
vt 0.7854 0.3372 0.0000
vt 0.8729 0.3372 0.0000
vt 0.8940 0.3435 0.0000
vt 0.7432 0.3435 0.0000
vt 0.7432 0.0158 0.0000
vt 0.8940 0.0158 0.0000
vt 0.7847 0.0076 0.0000
vt 0.8759 0.0076 0.0000
vt 0.8759 0.3285 0.0000
vt 0.7847 0.3285 0.0000
vt 0.7640 0.3039 0.0000
vt 0.7640 0.0931 0.0000
vt 0.8942 0.0931 0.0000
vt 0.8942 0.3039 0.0000
vt 0.5244 0.6894 0.0000
vt 0.5382 0.6737 0.0000
vt 0.5382 0.6554 0.0000
vt 0.5244 0.6690 0.0000
vt 0.4955 0.9950 0.0000
vt 0.4955 0.9596 0.0000
vt 0.5249 0.9596 0.0000
vt 0.5249 0.9950 0.0000
vt 0.4608 0.9870 0.0000
vt 0.4608 0.9525 0.0000
vt 0.4871 0.9525 0.0000
vt 0.4871 0.9870 0.0000
vt 0.9013 0.9978 0.0000
vt 0.9315 0.9978 0.0000
vt 0.9315 0.9614 0.0000
vt 0.9013 0.9614 0.0000
vt 0.4646 0.7047 0.0000
vt 0.4646 0.9420 0.0000
vt 0.4905 0.9420 0.0000
vt 0.4905 0.7047 0.0000
vt 0.9876 0.9420 0.0000
vt 0.9876 0.7047 0.0000
vt 0.9617 0.7047 0.0000
vt 0.9617 0.9420 0.0000
vt 0.9287 0.8217 0.0000
vt 0.5270 0.8217 0.0000
vt 0.5270 0.8390 0.0000
vt 0.9287 0.8390 0.0000
vt 0.9639 0.9870 0.0000
vt 0.9639 0.9525 0.0000
vt 0.9902 0.9525 0.0000
vt 0.9902 0.9870 0.0000
vt 0.8784 0.6737 0.0000
vt 0.8615 0.6737 0.0000
vt 0.8739 0.6894 0.0000
vt 0.8922 0.6894 0.0000
vt 0.5551 0.6737 0.0000
vt 0.5426 0.6894 0.0000
vt 0.5017 0.8960 0.0000
vt 0.9285 0.8960 0.0000
vt 0.9285 0.8775 0.0000
vt 0.5017 0.8775 0.0000
vt 0.9639 0.7123 0.0000
vt 0.9902 0.7123 0.0000
vt 0.4905 0.9760 0.0000
vt 0.9617 0.9760 0.0000
vt 0.9876 0.9760 0.0000
vt 0.4646 0.9760 0.0000
vt 0.9315 0.7076 0.0000
vt 0.9013 0.7076 0.0000
vt 0.4608 0.7123 0.0000
vt 0.4871 0.7123 0.0000
vt 0.4955 0.7126 0.0000
vt 0.5249 0.7126 0.0000
vt 0.9045 0.7126 0.0000
vt 0.9339 0.7126 0.0000
vt 0.9339 0.9596 0.0000
vt 0.9045 0.9596 0.0000
vt 0.5418 0.7242 0.0000
vt 0.5230 0.7242 0.0000
vt 0.5230 0.9931 0.0000
vt 0.5418 0.9931 0.0000
vt 0.4811 0.7076 0.0000
vt 0.4811 0.9614 0.0000
vt 0.5113 0.9614 0.0000
vt 0.5113 0.7076 0.0000
vt 0.5349 0.7196 0.0000
vt 0.5349 0.9906 0.0000
vt 0.5159 0.9906 0.0000
vt 0.5159 0.7196 0.0000
vt 0.5229 0.8234 0.0000
vt 0.9578 0.8234 0.0000
vt 0.9578 0.8035 0.0000
vt 0.5229 0.8035 0.0000
vt 0.9191 0.8532 0.0000
vt 0.5231 0.8532 0.0000
vt 0.5231 0.8713 0.0000
vt 0.9191 0.8713 0.0000
vt 0.5855 0.9876 0.0000
vt 0.5661 0.9876 0.0000
vt 0.5661 0.7108 0.0000
vt 0.5855 0.7108 0.0000
vt 0.6031 0.7090 0.0000
vt 0.5837 0.7090 0.0000
vt 0.5837 0.9854 0.0000
vt 0.6031 0.9854 0.0000
vt 0.8615 0.3998 0.0000
vt 0.8784 0.3998 0.0000
vt 0.8922 0.3841 0.0000
vt 0.8739 0.3841 0.0000
vt 0.5551 0.3998 0.0000
vt 0.5426 0.3841 0.0000
vt 0.8922 0.6690 0.0000
vt 0.8784 0.6554 0.0000
vt 0.8784 0.4182 0.0000
vt 0.8922 0.4046 0.0000
vt 0.4811 0.9978 0.0000
vt 0.5113 0.9978 0.0000
vt 0.9339 0.9950 0.0000
vt 0.9045 0.9950 0.0000
vt 0.5382 0.3998 0.0000
vt 0.5244 0.3841 0.0000
vt 0.5244 0.4046 0.0000
vt 0.5382 0.4182 0.0000
vt 0.0879 0.0085 0.0000
vt 0.0879 0.3699 0.0000
vt 0.6434 0.3699 0.0000
vt 0.6434 0.0085 0.0000
vt 0.0140 0.3663 0.0000
vt 0.0313 0.3176 0.0000
vt 0.2495 0.3176 0.0000
vt 0.4850 0.3420 0.0000
vt 0.7206 0.3663 0.0000
vt 0.5775 0.9832 0.0000
vt 0.5775 0.7099 0.0000
vt 0.6011 0.7099 0.0000
vt 0.6011 0.9832 0.0000
vt 0.5472 0.7053 0.0000
vt 0.5472 0.9875 0.0000
vt 0.5715 0.9875 0.0000
vt 0.5715 0.7053 0.0000
vt 0.6031 0.6696 0.0000
vt 0.6031 0.6895 0.0000
vt 0.5948 0.6895 0.0000
vt 0.5948 0.6696 0.0000
vt 0.4428 0.5358 0.0000
vt 0.4699 0.5358 0.0000
vt 0.4699 0.5232 0.0000
vt 0.4428 0.5232 0.0000
vt 0.4685 0.5373 0.0000
vt 0.4414 0.5373 0.0000
vt 0.4414 0.5247 0.0000
vt 0.4685 0.5247 0.0000
vt 0.5377 0.3989 0.0000
vt 0.5377 0.4182 0.0000
vt 0.5457 0.4182 0.0000
vt 0.5457 0.3989 0.0000
vt 0.9617 0.5358 0.0000
vt 0.9888 0.5358 0.0000
vt 0.9888 0.5232 0.0000
vt 0.9617 0.5232 0.0000
vt 0.9607 0.5373 0.0000
vt 0.9607 0.5247 0.0000
vt 0.9878 0.5247 0.0000
vt 0.9878 0.5373 0.0000
vt 0.5948 0.4121 0.0000
vt 0.5948 0.3922 0.0000
vt 0.6031 0.3922 0.0000
vt 0.6031 0.4121 0.0000
vt 0.5457 0.6878 0.0000
vt 0.5457 0.6684 0.0000
vt 0.5377 0.6684 0.0000
vt 0.5377 0.6878 0.0000
vt 0.4422 0.3772 0.0000
vt 0.4693 0.3772 0.0000
vt 0.4422 0.3983 0.0000
vt 0.4422 0.6929 0.0000
vt 0.4422 0.6717 0.0000
vt 0.4693 0.6929 0.0000
vt 0.9888 0.3772 0.0000
vt 0.9888 0.3983 0.0000
vt 0.9617 0.3772 0.0000
vt 0.9888 0.6717 0.0000
vt 0.9888 0.6929 0.0000
vt 0.9617 0.6929 0.0000
vt 0.3287 0.2662 0.0000
vt 0.3287 0.2861 0.0000
vt 0.4852 0.2861 0.0000
vt 0.4852 0.2662 0.0000
vt 0.0140 0.0082 0.0000
vt 0.0313 0.1118 0.0000
vt 0.2495 0.1118 0.0000
vt 0.2772 0.1118 0.0000
vt 0.2772 0.3176 0.0000
vt 0.2052 0.4897 0.0000
vt 0.2228 0.4897 0.0000
vt 0.2228 0.5793 0.0000
vt 0.2052 0.5793 0.0000
vt 0.1710 0.7004 0.0000
vt 0.0358 0.7004 0.0000
vt 0.0358 0.6841 0.0000
vt 0.1710 0.6841 0.0000
vt 0.3451 0.6141 0.0000
vt 0.3598 0.6141 0.0000
vt 0.3598 0.4695 0.0000
vt 0.3451 0.4695 0.0000
vt 0.3433 0.4736 0.0000
vt 0.3433 0.6192 0.0000
vt 0.3581 0.6192 0.0000
vt 0.3581 0.4736 0.0000
vt 0.3550 0.6209 0.0000
vt 0.3470 0.6125 0.0000
vt 0.3470 0.5229 0.0000
vt 0.3550 0.5146 0.0000
vt 0.3570 0.4600 0.0000
vt 0.3570 0.6237 0.0000
vt 0.3492 0.6314 0.0000
vt 0.3492 0.4600 0.0000
vt 0.3549 0.6362 0.0000
vt 0.3467 0.6283 0.0000
vt 0.3467 0.4586 0.0000
vt 0.3549 0.4586 0.0000
vt 0.3590 0.4811 0.0000
vt 0.3590 0.6209 0.0000
vt 0.3475 0.6209 0.0000
vt 0.3475 0.4811 0.0000
vt 0.3466 0.4741 0.0000
vt 0.3466 0.6235 0.0000
vt 0.3538 0.6235 0.0000
vt 0.3538 0.4741 0.0000
vt 0.3547 0.4760 0.0000
vt 0.3547 0.6262 0.0000
vt 0.3474 0.6262 0.0000
vt 0.3474 0.4760 0.0000
vt 0.2353 0.6700 0.0000
vt 0.2896 0.6700 0.0000
vt 0.2896 0.6883 0.0000
vt 0.2353 0.6883 0.0000
vt 0.2495 0.1065 0.0000
vt 0.2772 0.1065 0.0000
vt 0.1623 0.6869 0.0000
vt 0.1623 0.6739 0.0000
vt 0.1237 0.6739 0.0000
vt 0.1237 0.6869 0.0000
vt 0.0313 0.1065 0.0000
vt 0.4292 0.1065 0.0000
vt 0.2772 0.0082 0.0000
vt 0.4292 0.0082 0.0000
vt 0.2495 0.0082 0.0000
vt 0.0313 0.0082 0.0000
vt 0.4292 0.3176 0.0000
vt 0.5047 0.2579 0.0000
vt 0.6502 0.2579 0.0000
vt 0.4292 0.1118 0.0000
vt 0.5047 0.0082 0.0000
vt 0.7206 0.0082 0.0000
vt 0.6502 0.0082 0.0000
vt 0.1966 0.3979 0.0000
vt 0.1966 0.6030 0.0000
vt 0.0853 0.6030 0.0000
vt 0.0853 0.3979 0.0000
vt 0.0217 0.7459 0.0000
vt 0.1458 0.7459 0.0000
vt 0.1458 0.8600 0.0000
vt 0.0217 0.8600 0.0000
vt 0.3933 0.8906 0.0000
vt 0.2685 0.8906 0.0000
vt 0.2685 0.7477 0.0000
vt 0.3933 0.7477 0.0000
vt 0.1690 0.1074 0.0000
vt 0.1690 0.3206 0.0000
vt 0.1881 0.3206 0.0000
vt 0.1881 0.1074 0.0000
vt 0.2309 0.1087 0.0000
vt 0.2498 0.1087 0.0000
vt 0.2498 0.3189 0.0000
vt 0.2309 0.3189 0.0000
vt 0.5132 0.2261 0.0000
vt 0.2937 0.2261 0.0000
vt 0.2937 0.2456 0.0000
vt 0.5132 0.2456 0.0000
vt 0.2014 0.1131 0.0000
vt 0.2199 0.1131 0.0000
vt 0.2199 0.3185 0.0000
vt 0.2014 0.3185 0.0000
vt 0.2011 0.3168 0.0000
vt 0.2199 0.3168 0.0000
vt 0.2199 0.1072 0.0000
vt 0.2011 0.1072 0.0000
vt 0.1696 0.6828 0.0000
vt 0.1696 0.7003 0.0000
vt 0.0366 0.7003 0.0000
vt 0.0366 0.6828 0.0000
vt 0.3191 0.6764 0.0000
vt 0.3191 0.6868 0.0000
vt 0.0189 0.6868 0.0000
vt 0.0189 0.6764 0.0000
vt 0.3440 0.6801 0.0000
vt 0.3440 0.6880 0.0000
vt 0.0170 0.6880 0.0000
vt 0.0170 0.6801 0.0000
vt 0.1670 0.6900 0.0000
vt 0.2146 0.6900 0.0000
vt 0.2146 0.6740 0.0000
vt 0.1670 0.6740 0.0000
vt 0.1274 0.6887 0.0000
vt 0.0872 0.6887 0.0000
vt 0.0872 0.6752 0.0000
vt 0.1274 0.6752 0.0000
vt 0.1386 0.6706 0.0000
vt 0.1386 0.6877 0.0000
vt 0.3043 0.6877 0.0000
vt 0.3043 0.6706 0.0000
vt 0.2888 0.6712 0.0000
vt 0.1206 0.6712 0.0000
vt 0.1206 0.6832 0.0000
vt 0.2888 0.6832 0.0000
vt 0.1710 0.6702 0.0000
vt 0.0358 0.6702 0.0000
vt 0.0366 0.6679 0.0000
vt 0.1696 0.6679 0.0000
vt 0.7189 0.3700 0.0000
vt 0.7189 0.0092 0.0000
vt 0.0138 0.0092 0.0000
vt 0.0138 0.3700 0.0000
vt 0.6528 0.9844 0.0000
vt 0.6296 0.9844 0.0000
vt 0.6296 0.7112 0.0000
vt 0.6528 0.7112 0.0000
vt 0.6269 0.7073 0.0000
vt 0.6033 0.7073 0.0000
vt 0.6033 0.9847 0.0000
vt 0.6269 0.9847 0.0000
vt 0.0904 0.0084 0.0000
vt 0.0904 0.3695 0.0000
vt 0.6454 0.3695 0.0000
vt 0.6454 0.0084 0.0000
# 334 texture coords

o Cube
g Cube
usemtl Material__25
s off
f 1/1/1 2/1/1 3/1/1 
f 3/1/1 4/1/1 1/1/1 
f 5/2/2 3/3/2 2/4/2 
f 2/4/2 6/5/2 5/2/2 
f 6/6/3 7/7/3 8/8/3 
f 8/8/3 5/9/3 6/6/3 
f 4/10/4 8/11/4 7/12/4 
f 7/12/4 1/13/4 4/10/4 
f 4/1/5 3/1/5 5/1/5 
f 5/1/5 8/1/5 4/1/5 
f 2/14/6 1/15/6 7/16/6 
f 7/16/6 6/17/6 2/14/6 
f 9/1/3 10/1/3 11/1/3 
f 11/1/3 12/1/3 9/1/3 
f 13/2/4 12/3/4 11/4/4 
f 11/4/4 14/5/4 13/2/4 
f 15/8/1 13/9/1 14/6/1 
f 14/6/1 16/7/1 15/8/1 
f 16/12/2 10/13/2 9/10/2 
f 9/10/2 15/11/2 16/12/2 
f 9/1/5 12/1/5 13/1/5 
f 13/1/5 15/1/5 9/1/5 
f 10/15/6 16/16/6 14/17/6 
f 14/17/6 11/14/6 10/15/6 
f 17/18/5 18/19/5 19/20/5 
f 19/20/5 20/21/5 17/18/5 
f 21/22/3 22/23/3 23/24/3 
f 23/24/7 24/25/7 21/22/7 
f 25/26/4 26/27/4 27/28/4 
f 27/28/4 28/29/4 25/26/4 
f 19/30/1 18/31/1 29/32/1 
f 29/32/1 30/33/1 19/30/1 
f 31/34/2 29/35/2 32/36/2 
f 32/36/2 33/37/2 31/34/2 
f 34/38/8 35/39/8 36/40/8 
f 36/40/2 37/41/2 34/38/2 
f 38/42/5 39/43/5 32/44/5 
f 32/44/5 37/45/5 38/42/5 
f 40/46/4 41/47/4 22/48/4 
f 22/48/4 21/49/4 40/46/4 
f 41/47/9 40/46/9 28/29/9 
f 28/29/9 27/28/9 41/47/9 
f 42/50/5 43/51/5 44/52/5 
f 44/52/5 45/53/5 42/50/5 
f 46/54/5 47/55/5 44/52/5 
f 44/52/5 43/51/5 46/54/5 
f 48/56/5 49/57/5 41/58/5 
f 41/58/5 27/59/5 48/56/5 
f 41/47/10 50/60/10 51/61/10 
f 51/61/10 22/48/10 41/47/10 
f 46/62/2 43/63/2 37/41/2 
f 37/41/2 32/36/2 46/62/2 
f 42/64/2 34/38/2 37/41/2 
f 37/41/2 43/63/2 42/64/2 
f 18/65/2 46/62/2 32/36/2 
f 32/36/2 29/35/2 18/65/2 
f 30/33/11 29/32/11 31/66/11 
f 31/66/11 52/67/11 30/33/11 
f 53/68/4 54/69/4 27/28/4 
f 27/28/4 26/27/4 53/68/4 
f 22/23/3 51/70/3 55/71/3 
f 55/71/3 23/24/3 22/23/3 
f 56/72/12 35/73/12 34/74/12 
f 34/74/7 57/75/7 56/72/7 
f 58/76/2 59/77/2 60/78/2 
f 60/78/2 61/79/2 58/76/2 
f 53/80/1 26/81/1 60/82/1 
f 60/82/1 59/83/1 53/80/1 
f 62/84/13 63/85/13 30/86/13 
f 30/86/10 52/87/10 62/84/10 
f 60/88/14 30/89/14 63/90/14 
f 63/90/14 61/91/14 60/88/14 
f 57/92/15 23/93/15 64/94/15 
f 64/94/15 65/95/15 57/92/15 
f 57/96/10 65/97/10 66/98/10 
f 66/98/10 56/99/10 57/96/10 
f 55/100/2 67/101/2 64/102/2 
f 64/102/16 23/103/16 55/100/16 
f 40/104/5 21/105/5 68/106/5 
f 68/106/5 69/107/5 40/104/5 
f 28/108/5 40/104/5 69/107/5 
f 69/107/5 70/109/5 28/108/5 
f 71/110/5 72/111/5 42/50/5 
f 42/50/5 45/53/5 71/110/5 
f 24/112/5 72/111/5 71/110/5 
f 71/110/5 73/113/5 24/112/5 
f 60/82/1 26/81/1 25/114/1 
f 25/114/1 74/115/1 60/82/1 
f 60/82/1 74/115/1 19/30/1 
f 19/30/1 30/33/1 60/82/1 
f 57/75/17 34/74/17 42/116/17 
f 42/116/7 72/117/7 57/75/7 
f 57/75/7 72/117/7 24/25/7 
f 24/25/7 23/24/7 57/75/7 
f 25/118/5 75/119/5 76/120/5 
f 76/120/5 74/121/5 25/118/5 
f 19/20/5 74/121/5 76/120/5 
f 76/120/5 20/21/5 19/20/5 
f 58/1/6 77/1/6 78/1/6 
f 78/1/6 62/1/6 58/1/6 
f 66/122/7 65/123/7 64/124/7 
f 64/124/3 67/125/3 66/122/3 
f 48/126/4 79/127/4 80/128/4 
f 48/126/4 80/128/4 81/129/4 
f 48/126/4 81/129/4 49/130/4 
f 27/131/3 54/132/3 82/133/3 
f 82/133/3 48/134/3 27/131/3 
f 50/135/11 41/136/11 49/137/11 
f 49/137/11 83/138/11 50/135/11 
f 25/118/5 28/108/5 70/109/5 
f 70/109/5 75/119/5 25/118/5 
f 47/55/5 46/54/5 18/19/5 
f 18/19/5 17/18/5 47/55/5 
f 68/106/5 21/105/5 24/112/5 
f 24/112/5 73/113/5 68/106/5 
f 84/139/3 85/140/3 68/141/3 
f 68/141/3 73/142/3 84/139/3 
f 86/143/2 87/144/2 47/145/2 
f 47/145/2 17/146/2 86/143/2 
f 88/147/4 89/148/4 75/149/4 
f 75/149/4 70/150/4 88/147/4 
f 17/151/1 20/152/1 90/153/1 
f 90/153/1 86/154/1 17/151/1 
f 91/155/2 92/156/2 45/157/2 
f 45/157/2 44/158/2 91/155/2 
f 87/144/2 91/155/2 44/158/2 
f 44/158/2 47/145/2 87/144/2 
f 93/159/4 69/160/4 68/161/4 
f 68/161/4 85/162/4 93/159/4 
f 70/150/9 69/160/9 93/159/9 
f 93/159/9 88/147/9 70/150/9 
f 71/163/17 45/164/17 92/165/17 
f 92/165/17 94/166/17 71/163/17 
f 71/163/17 94/166/17 84/139/17 
f 84/139/17 73/142/17 71/163/17 
f 89/167/1 95/168/1 76/169/1 
f 76/169/1 75/170/1 89/167/1 
f 90/153/1 20/152/1 76/169/1 
f 76/169/1 95/168/1 90/153/1 
f 89/171/6 88/172/6 95/173/6 
f 86/174/6 90/175/6 87/176/6 
f 85/177/6 84/178/6 93/179/6 
f 94/180/6 92/181/6 91/182/6 
f 93/179/6 84/178/6 94/180/6 
f 94/180/6 91/182/6 93/179/6 
f 90/175/6 95/173/6 88/172/6 
f 88/172/6 87/176/6 90/175/6 
f 93/179/6 91/182/6 87/176/6 
f 87/176/6 88/172/6 93/179/6 
f 96/183/5 97/184/5 98/185/5 
f 98/185/5 99/186/5 96/183/5 
f 48/126/4 82/187/4 100/188/4 
f 100/188/4 79/127/4 48/126/4 
f 101/189/4 102/190/4 96/191/4 
f 96/191/4 80/128/4 101/189/4 
f 103/192/6 104/193/6 105/194/6 
f 105/194/6 106/195/6 103/192/6 
f 107/196/6 108/197/6 102/198/6 
f 102/198/6 109/199/6 107/196/6 
f 106/200/1 105/201/1 110/202/1 
f 110/202/1 111/203/1 106/200/1 
f 112/204/11 103/205/11 104/206/11 
f 104/206/11 113/207/11 112/204/11 
f 114/208/4 106/209/4 103/210/4 
f 103/210/4 115/211/4 114/208/4 
f 111/212/4 106/213/4 114/214/4 
f 114/214/4 116/215/4 111/212/4 
f 115/216/4 103/217/4 112/218/4 
f 112/218/4 117/219/4 115/216/4 
f 118/220/6 119/221/6 114/222/6 
f 114/222/6 115/223/6 118/220/6 
f 116/224/11 114/225/11 119/226/11 
f 119/226/11 120/227/11 116/224/11 
f 121/228/3 118/229/3 115/230/3 
f 115/230/3 117/231/3 121/228/3 
f 122/232/3 123/233/3 101/234/3 
f 101/234/3 124/235/3 122/232/3 
f 102/190/4 101/189/4 123/236/4 
f 123/236/4 125/237/4 102/190/4 
f 100/238/1 126/239/1 127/240/1 
f 127/240/1 128/241/1 100/238/1 
f 100/188/4 82/187/4 126/242/4 
f 129/243/4 125/237/4 130/244/4 
f 130/244/4 131/245/4 129/243/4 
f 125/237/4 123/236/4 132/246/4 
f 132/246/4 130/244/4 125/237/4 
f 123/236/4 126/242/4 133/247/4 
f 133/247/4 132/246/4 123/236/4 
f 126/242/4 82/187/4 133/247/4 
f 99/248/4 119/249/4 118/250/4 
f 118/250/4 49/130/4 99/248/4 
f 49/130/4 81/129/4 99/248/4 
f 96/191/4 99/248/4 81/129/4 
f 81/129/4 80/128/4 96/191/4 
f 109/251/4 129/243/4 120/252/4 
f 120/252/4 119/249/4 109/251/4 
f 129/243/4 131/245/4 120/252/4 
f 109/251/4 119/249/4 99/248/4 
f 83/253/4 49/130/4 118/250/4 
f 118/250/4 121/254/4 83/253/4 
f 113/255/4 104/256/4 105/257/4 
f 105/257/4 110/258/4 113/255/4 
f 134/259/4 135/260/4 136/261/4 
f 136/261/4 137/262/4 134/259/4 
f 98/263/4 97/264/4 108/265/4 
f 108/265/4 107/266/4 98/263/4 
f 109/267/11 99/268/11 98/269/11 
f 98/269/11 107/270/11 109/267/11 
f 102/271/3 108/272/3 97/273/3 
f 97/273/3 96/274/3 102/271/3 
f 80/275/5 79/276/5 137/277/5 
f 137/277/5 136/278/5 80/275/5 
f 100/279/3 134/280/3 137/281/3 
f 137/281/3 79/282/3 100/279/3 
f 80/283/11 136/284/11 135/285/11 
f 135/285/11 101/286/11 80/283/11 
f 101/287/6 135/288/6 134/289/6 
f 134/289/6 100/290/6 101/287/6 
f 138/291/4 139/292/4 140/293/4 
f 140/293/4 141/294/4 138/291/4 
f 122/295/4 124/296/4 128/297/4 
f 128/297/4 127/298/4 122/295/4 
f 140/299/1 102/300/1 125/301/1 
f 125/301/1 141/302/1 140/299/1 
f 109/303/3 139/304/3 138/305/3 
f 138/305/3 129/306/3 109/303/3 
f 141/307/5 125/308/5 129/309/5 
f 129/309/5 138/310/5 141/307/5 
f 122/311/5 127/312/5 126/313/5 
f 126/313/5 123/314/5 122/311/5 
f 139/315/6 109/199/6 102/198/6 
f 102/198/6 140/316/6 139/315/6 
f 100/290/6 128/317/6 124/318/6 
f 124/318/6 101/287/6 100/290/6 
f 38/319/2 142/320/2 143/321/2 
f 143/321/2 39/322/2 38/319/2 
f 32/323/3 39/324/3 143/325/3 
f 143/325/3 33/326/3 32/323/3 
f 36/327/1 142/328/1 38/329/1 
f 38/329/1 37/330/1 36/327/1 
f 77/331/1 144/332/1 145/333/1 
f 145/333/11 78/334/11 77/331/11 
f 144/1/5 61/1/5 63/1/5 
f 63/1/5 145/1/5 144/1/5 
f 61/1/2 144/1/2 77/1/2 
f 77/1/2 58/1/2 61/1/2 
f 63/1/10 62/1/10 78/1/10 
f 78/1/10 145/1/10 63/1/10 
# 248 faces

